<svg width="98" height="24" viewBox="0 0 98 24" fill="none" xmlns="http://www.w3.org/2000/svg">
<path fill-rule="evenodd" clip-rule="evenodd" d="M2.70066 0.165884C1.51708 0.48529 0.687227 1.20582 0.250873 2.29271L0 2.91761V12.0025V21.0875L0.252354 21.7164C0.55613 22.4734 1.19267 23.196 1.85091 23.531C2.65844 23.9419 3.42852 24.0336 5.66817 23.9854C7.37201 23.9487 7.81079 23.9064 8.23043 23.7384C8.984 23.4369 9.67472 22.8569 10.0231 22.2333C10.559 21.274 10.6259 20.5291 10.6301 15.4824L10.6338 10.94H7.93565H5.23753V12.4807V14.0214H6.18981H7.14208L7.14145 16.8106C7.14113 18.3448 7.09331 19.772 7.03511 19.9824C6.85344 20.639 6.61865 20.7638 5.48533 20.8057C4.32197 20.8488 3.96211 20.7374 3.7105 20.2563C3.54914 19.948 3.53655 19.2199 3.56565 11.861L3.59749 3.80325L3.94307 3.4933C4.27255 3.19759 4.33434 3.18325 5.27784 3.18325C6.91989 3.18325 7.03479 3.38641 7.03564 6.29125L7.03627 8.1773H8.79164H10.5469L10.5055 5.54745C10.4669 3.09718 10.4472 2.87468 10.2172 2.28867C9.77185 1.15417 8.83661 0.381372 7.58659 0.114987C6.75683 -0.0617173 3.4154 -0.0269719 2.70066 0.165884ZM24.9708 0.13847C23.3346 0.552657 22.4523 1.54647 22.1733 3.2895C22.0223 4.23242 22.023 19.7783 22.174 20.7156C22.4167 22.2222 23.145 23.215 24.3733 23.7138C24.9354 23.942 25.1152 23.9564 27.4044 23.9564C29.6859 23.9564 29.875 23.9414 30.4283 23.7164C31.6043 23.2385 32.3172 22.3667 32.5902 21.073C32.818 19.9934 32.818 4.01162 32.5902 2.93206C32.3167 1.63573 31.5983 0.759007 30.4283 0.293816C29.8975 0.082685 29.6198 0.0563339 27.669 0.0317886C26.1898 0.0131938 25.3316 0.0470893 24.9708 0.13847ZM57.6128 0.18331C56.359 0.522799 55.5282 1.31707 55.1032 2.58279C54.9362 3.0806 54.9165 3.88996 54.8863 11.523C54.8645 17.0647 54.8914 20.169 54.9655 20.661C55.1919 22.1656 55.9552 23.2182 57.1812 23.7164C57.7346 23.9414 57.9237 23.9564 60.2051 23.9564C62.5201 23.9564 62.6691 23.944 63.261 23.7044C64.3907 23.2471 65.0861 22.4066 65.3836 21.1391C65.5215 20.5515 65.5456 19.21 65.5469 12.0343C65.5479 6.24896 65.5116 3.44273 65.4305 3.05563C65.1466 1.70012 64.3942 0.754757 63.2362 0.298492C62.7011 0.0876789 62.4123 0.0596271 60.4696 0.0300878C58.6617 0.00267369 58.1861 0.0281754 57.6128 0.18331ZM84.2237 0.14527C83.0639 0.433862 82.2752 1.08564 81.7691 2.17381L81.4727 2.81135V5.94591C81.4727 8.9857 81.4802 9.09907 81.7201 9.69645C82.0637 10.5513 82.7055 11.1637 85.0173 12.8432C86.0938 13.6254 87.1588 14.4376 87.3838 14.6481C88.0495 15.271 88.0857 15.4415 88.0857 17.9577V20.2006L87.7855 20.5021C87.4371 20.852 86.7691 20.993 86.0052 20.8779C85.6702 20.8274 85.4155 20.7068 85.2116 20.5021L84.9114 20.2006V17.4298V14.6589H83.1587H81.406L81.4409 17.9263C81.4732 20.9521 81.4922 21.234 81.6974 21.739C82.155 22.8652 82.9437 23.5427 84.1618 23.8562C84.6999 23.9946 85.2252 24.0206 86.8035 23.9866C88.5288 23.9494 88.8476 23.9147 89.3709 23.7076C90.5584 23.2377 91.3135 22.2663 91.5675 20.882C91.7132 20.0878 91.7195 15.3052 91.5758 14.5443C91.3105 13.1398 90.8651 12.6394 87.9998 10.5279C86.7377 9.59773 85.6039 8.7242 85.4802 8.5867C85.0148 8.06924 84.9705 7.8648 84.9301 6.04686C84.887 4.11278 84.9758 3.67341 85.4763 3.34412C85.8462 3.10079 86.7757 3.02737 87.2921 3.20067C88.0195 3.44464 88.0854 3.7055 88.0855 6.34438L88.0857 8.60232H89.8392H91.5925L91.5585 5.70684L91.5245 2.81135L91.1971 2.12068C90.6698 1.00797 89.8635 0.37659 88.636 0.114987C87.8944 -0.0430162 84.8977 -0.0224029 84.2237 0.14527ZM12.8558 12.0025V23.797H16.612H20.3682V22.15V20.503H18.4107H16.4532V10.3556V0.208068H14.6545H12.8558V12.0025ZM35.393 12.0025V23.797H37.1917H38.9905V19.0576V14.3183L40.3021 14.3558C42.4547 14.4173 42.3764 14.2174 42.3764 19.6496V23.797H44.1751H45.9739V19.5159C45.9739 14.813 45.9222 14.3186 45.3556 13.5964C45.1952 13.3918 44.8165 13.0974 44.5143 12.942L43.9648 12.6595L44.4447 12.3771C45.0376 12.0281 45.4991 11.4043 45.7385 10.628C45.8944 10.123 45.921 9.56426 45.921 6.79596C45.921 3.7497 45.907 3.51052 45.6875 2.81135C45.402 1.90169 44.9663 1.28731 44.3043 0.860694C43.3775 0.263427 42.925 0.208068 38.9683 0.208068H35.393V12.0025ZM48.5133 12.0025V23.797H50.312H52.1108V12.0025V0.208068H50.312H48.5133V12.0025ZM68.0887 10.1165C68.0891 16.3255 68.1298 20.2828 68.1974 20.7156C68.4259 22.178 69.2063 23.2352 70.4073 23.7098C70.917 23.9112 71.2576 23.9491 72.9022 23.9878C74.0865 24.0157 75.0688 23.9858 75.4998 23.9089C76.4971 23.731 77.344 23.2266 77.8388 22.5156C78.5876 21.4397 78.5629 21.8504 78.5629 10.4395V0.208068H76.7658H74.9686L74.9406 10.2463L74.9125 20.2847L74.6716 20.5266C74.4638 20.7354 74.3001 20.7738 73.4789 20.8059C72.721 20.8355 72.4718 20.8068 72.2561 20.6649C71.669 20.2784 71.6854 20.586 71.6854 9.98706V0.208068H69.8866H68.0879L68.0887 10.1165ZM93.4819 0.314324C93.4819 0.372765 93.6248 0.42058 93.7994 0.42058H94.1168V1.32376C94.1168 2.05576 94.1468 2.22694 94.2755 2.22694C94.4042 2.22694 94.4342 2.05576 94.4342 1.32376V0.42058H94.7516C94.9262 0.42058 95.0691 0.372765 95.0691 0.314324C95.0691 0.252908 94.734 0.208068 94.2755 0.208068C93.817 0.208068 93.4819 0.252908 93.4819 0.314324ZM95.4923 1.2175C95.4923 2.04397 95.5211 2.22694 95.651 2.22694C95.7768 2.22694 95.8113 2.06702 95.8176 1.45658L95.8254 0.686221L96.1301 1.35032C96.3116 1.74581 96.5009 2.01443 96.598 2.01443C96.6948 2.01443 96.887 1.74411 97.07 1.35032L97.3787 0.686221L97.3878 1.45658C97.395 2.06649 97.43 2.22694 97.5556 2.22694C97.6855 2.22694 97.7143 2.04397 97.7143 1.2175C97.7143 0.241432 97.7065 0.208068 97.4762 0.20828C97.2851 0.208493 97.1737 0.350239 96.9119 0.925511L96.5856 1.64253L96.2572 0.925298C96.0067 0.378184 95.877 0.208068 95.7106 0.208068C95.5054 0.208068 95.4923 0.268634 95.4923 1.2175ZM26.2934 3.31915C26.148 3.39215 25.9457 3.61858 25.844 3.82227C25.6729 4.16484 25.6589 4.77837 25.6588 11.9794C25.6586 20.3529 25.653 20.2638 26.2 20.6485C26.3847 20.7785 26.6916 20.8218 27.4263 20.8218C28.3596 20.8218 28.4227 20.807 28.7518 20.5118L29.0974 20.2017V12.0025V3.80336L28.7518 3.4933C28.4256 3.20057 28.3547 3.18335 27.4821 3.18484C26.958 3.18569 26.4435 3.24381 26.2934 3.31915ZM58.9533 3.40054C58.802 3.52019 58.6292 3.79507 58.5693 4.01152C58.4994 4.26462 58.4603 7.15617 58.46 12.1088C58.4596 19.2314 58.4736 19.8403 58.6447 20.1828C58.9021 20.6984 59.2105 20.8184 60.2828 20.8202C61.1554 20.8217 61.2263 20.8045 61.5525 20.5118L61.8981 20.2017V12.0025V3.80336L61.5525 3.4933C61.2229 3.19759 61.1612 3.18325 60.2177 3.18325C59.3814 3.18325 59.186 3.21682 58.9533 3.40054ZM38.9905 7.27412V11.1525H40.2174C41.1796 11.1525 41.5097 11.1137 41.7471 10.9728C42.2866 10.6528 42.3235 10.4099 42.3235 7.16786C42.3235 4.46842 42.3057 4.16633 42.1313 3.90845C41.8568 3.50244 41.4422 3.39576 40.1386 3.39576H38.9905V7.27412Z" fill="currentColor"/>
</svg>
